<svg width="30" height="30" viewBox="0 0 30 30" fill="none" xmlns="http://www.w3.org/2000/svg">
<path d="M11.7999 4.93127C11.7496 4.93133 11.6999 4.94237 11.6535 4.96378C11.6071 4.98518 11.5649 5.01653 11.5294 5.05603C11.4939 5.09552 11.4658 5.14239 11.4466 5.19396C11.4275 5.24553 11.4177 5.30079 11.4177 5.35657V25.7513C11.4178 25.8638 11.4581 25.9716 11.5298 26.0512C11.6014 26.1307 11.6985 26.1755 11.7999 26.1756C11.8501 26.1756 11.8999 26.1647 11.9463 26.1435C11.9928 26.1222 12.035 26.091 12.0706 26.0515C12.1061 26.0122 12.1344 25.9654 12.1537 25.9138C12.1729 25.8623 12.1829 25.8071 12.1829 25.7513V5.35657C12.183 5.3007 12.1732 5.24536 12.1539 5.19372C12.1347 5.14208 12.1065 5.09517 12.0709 5.05566C12.0353 5.01615 11.9931 4.98482 11.9465 4.96348C11.9 4.94213 11.8502 4.93119 11.7999 4.93127Z" fill="white"/>
<path d="M20.1192 4.93127C20.0689 4.93133 20.0192 4.94237 19.9728 4.96378C19.9264 4.98518 19.8843 5.01653 19.8488 5.05603C19.8133 5.09552 19.7851 5.14239 19.766 5.19396C19.7468 5.24553 19.737 5.30079 19.7371 5.35657V25.7513C19.7372 25.8638 19.7775 25.9716 19.8491 26.0512C19.9207 26.1307 20.0179 26.1755 20.1192 26.1756C20.1694 26.1756 20.2192 26.1647 20.2657 26.1435C20.3121 26.1222 20.3543 26.091 20.3899 26.0515C20.4255 26.0122 20.4537 25.9654 20.473 25.9138C20.4923 25.8623 20.5022 25.8071 20.5023 25.7513V5.35657C20.5023 5.3007 20.4925 5.24536 20.4733 5.19372C20.454 5.14208 20.4258 5.09517 20.3902 5.05566C20.3547 5.01615 20.3124 4.98482 20.2659 4.96348C20.2194 4.94213 20.1695 4.93119 20.1192 4.93127Z" fill="white"/>
<path d="M15.96 4.93127C15.9098 4.93133 15.86 4.94237 15.8136 4.96378C15.7672 4.98518 15.7251 5.01653 15.6896 5.05603C15.6541 5.09552 15.626 5.14239 15.6068 5.19396C15.5876 5.24553 15.5778 5.30079 15.5779 5.35657V25.7513C15.578 25.8638 15.6183 25.9716 15.6899 26.0512C15.7616 26.1307 15.8587 26.1755 15.96 26.1756C16.0613 26.1755 16.1585 26.1307 16.2301 26.0512C16.3018 25.9716 16.3421 25.8638 16.3422 25.7513V5.35657C16.3422 5.30079 16.3324 5.24553 16.3132 5.19396C16.2941 5.14239 16.2659 5.09552 16.2304 5.05603C16.195 5.01653 16.1528 4.98518 16.1064 4.96378C16.06 4.94237 16.0103 4.93133 15.96 4.93127Z" fill="white"/>
<path d="M7.64044 4.93127C7.59019 4.93133 7.54044 4.94237 7.49404 4.96378C7.44764 4.98518 7.40549 5.01653 7.37 5.05603C7.33452 5.09552 7.30639 5.14239 7.28722 5.19396C7.26806 5.24553 7.25823 5.30079 7.2583 5.35657V25.7513C7.2584 25.8638 7.29869 25.9716 7.37034 26.0512C7.44198 26.1307 7.53912 26.1755 7.64044 26.1756C7.74175 26.1755 7.83889 26.1307 7.91054 26.0512C7.98218 25.9716 8.02247 25.8638 8.02257 25.7513V5.35657C8.02265 5.30079 8.01282 5.24553 7.99365 5.19396C7.97449 5.14239 7.94636 5.09552 7.91087 5.05603C7.87538 5.01653 7.83323 4.98518 7.78683 4.96378C7.74043 4.94237 7.69068 4.93133 7.64044 4.93127Z" fill="white"/>
<path d="M24.2793 4.93127C24.229 4.93119 24.1791 4.94213 24.1326 4.96348C24.0861 4.98482 24.0439 5.01615 24.0083 5.05566C23.9727 5.09516 23.9445 5.14208 23.9252 5.19372C23.906 5.24536 23.8962 5.3007 23.8962 5.35657V25.7513C23.8963 25.8071 23.9062 25.8623 23.9255 25.9138C23.9448 25.9654 23.973 26.0122 24.0086 26.0515C24.0442 26.091 24.0864 26.1222 24.1329 26.1435C24.1793 26.1647 24.2291 26.1756 24.2793 26.1756C24.3806 26.1755 24.4778 26.1307 24.5494 26.0512C24.6211 25.9716 24.6613 25.8638 24.6614 25.7513V5.35657C24.6615 5.30079 24.6517 5.24553 24.6325 5.19396C24.6134 5.14239 24.5852 5.09553 24.5497 5.05603C24.5143 5.01654 24.4721 4.98519 24.4257 4.96378C24.3793 4.94237 24.3296 4.93133 24.2793 4.93127Z" fill="white"/>
<path d="M8 10.5948V11.5222H24V10.5948H8Z" fill="white"/>
<path d="M7.59814 16.0905V17.0335H24.0981V16.0905H7.59814Z" fill="white"/>
<path d="M7.59814 21.9434V22.793H24.2793V21.9434H7.59814Z" fill="white"/>
<path d="M24.5 5.72186V5.09915C24.5 4.48894 23.7439 4.54958 23 4.54958L18.5 4.54959L13.5 4.54961L8.5 4.54959C7.75606 4.54959 7.59814 4.48894 7.59814 5.09916V5.72186H14H24.5Z" fill="white"/>
<path d="M15.9953 4.00003L8.05503 4.11315C7.67351 4.11315 7.35233 4.27092 7.18868 4.51207C7.02503 4.75322 7 5.0232 7 5.26995V5.89208C7.00004 5.93253 7.00843 5.97257 7.02469 6.00989C7.04094 6.04722 7.06473 6.08108 7.0947 6.10955C7.12466 6.13801 7.1602 6.1605 7.19927 6.17572C7.23834 6.19095 7.28016 6.1986 7.32233 6.19825L16 6.13867L24.6785 6.19825C24.7206 6.1985 24.7623 6.19077 24.8013 6.1755C24.8403 6.16024 24.8757 6.13773 24.9056 6.10927C24.9355 6.08082 24.9592 6.04699 24.9754 6.00972C24.9916 5.97244 25 5.93246 25 5.89208V5.26995C25 5.0232 24.975 4.75322 24.8113 4.51207C24.6477 4.27092 24.3273 4.11315 23.9458 4.11315L16.0047 4.00003C16.0016 3.99999 15.9984 3.99999 15.9953 4.00003ZM16 4.61312L23.941 4.72624C23.9426 4.72625 23.9442 4.72625 23.9458 4.72624C24.1793 4.72624 24.2258 4.77304 24.2759 4.84689C24.3261 4.92075 24.3609 5.07666 24.3609 5.26995V5.5829L16.0024 5.52559C16.0008 5.52558 15.9992 5.52558 15.9976 5.52559L7.63915 5.5829V5.26995C7.63915 5.07666 7.67394 4.92075 7.72406 4.84689C7.77418 4.77304 7.82154 4.72624 8.05503 4.72624C8.0566 4.72625 8.05818 4.72625 8.05975 4.72624L16 4.61312Z" fill="white"/>
<path d="M17.0269 13.6112C17.0269 13.7648 16.9997 13.9169 16.9468 14.0587C16.8938 14.2006 16.8162 14.3295 16.7184 14.4381C16.6206 14.5467 16.5045 14.6328 16.3767 14.6916C16.2489 14.7504 16.112 14.7806 15.9736 14.7806C15.8353 14.7806 15.6984 14.7504 15.5706 14.6916C15.4428 14.6328 15.3267 14.5467 15.2289 14.4381C15.131 14.3295 15.0535 14.2006 15.0005 14.0587C14.9476 13.9169 14.9203 13.7648 14.9203 13.6112C14.9203 13.3011 15.0313 13.0036 15.2289 12.7843C15.4264 12.565 15.6943 12.4418 15.9736 12.4418C16.253 12.4418 16.5209 12.565 16.7184 12.7843C16.916 13.0036 17.0269 13.3011 17.0269 13.6112Z" fill="white"/>
<path d="M15.9467 11.9985C15.0262 11.9985 14.2722 12.7535 14.2722 13.674C14.2722 14.5945 15.0262 15.3485 15.9467 15.3485C16.8672 15.3485 17.6222 14.5945 17.6222 13.674C17.6222 12.7535 16.8672 11.9985 15.9467 11.9985ZM15.9467 12.78C16.445 12.78 16.8407 13.1757 16.8407 13.674C16.8407 14.1722 16.445 14.567 15.9467 14.567C15.4485 14.567 15.0537 14.1722 15.0537 13.674C15.0537 13.1757 15.4485 12.78 15.9467 12.78Z" fill="white"/>
<path d="M8.95901 19.3864C8.95901 19.555 8.9258 19.722 8.86127 19.8778C8.79674 20.0336 8.70215 20.1751 8.58292 20.2943C8.46368 20.4136 8.32213 20.5082 8.16634 20.5727C8.01054 20.6372 7.84357 20.6704 7.67494 20.6704C7.50631 20.6704 7.33934 20.6372 7.18355 20.5727C7.02776 20.5082 6.8862 20.4136 6.76697 20.2943C6.64773 20.1751 6.55314 20.0336 6.48861 19.8778C6.42408 19.722 6.39087 19.555 6.39087 19.3864C6.39087 19.2177 6.42408 19.0508 6.48861 18.895C6.55314 18.7392 6.64773 18.5976 6.76697 18.4784C6.8862 18.3592 7.02776 18.2646 7.18355 18.2C7.33934 18.1355 7.50631 18.1023 7.67494 18.1023C7.84357 18.1023 8.01054 18.1355 8.16634 18.2C8.32213 18.2646 8.46368 18.3592 8.58292 18.4784C8.70215 18.5976 8.79674 18.7392 8.86127 18.895C8.9258 19.0508 8.95901 19.2177 8.95901 19.3864Z" fill="white"/>
<path d="M7.675 17.7114C6.75476 17.7114 6 18.4661 6 19.3864C6 20.3066 6.75476 21.0614 7.675 21.0614C8.59524 21.0614 9.35 20.3066 9.35 19.3864C9.35 18.4661 8.59524 17.7114 7.675 17.7114ZM7.675 18.4926C8.17311 18.4927 8.56872 18.8883 8.56872 19.3864C8.56872 19.8845 8.17311 20.2801 7.675 20.2801C7.17689 20.2801 6.78128 19.8845 6.78128 19.3864C6.78128 18.8883 7.17689 18.4927 7.675 18.4926Z" fill="white"/>
<path d="M21.4388 19.6771C21.4388 19.8459 21.4055 20.0131 21.341 20.1691C21.2764 20.3251 21.1818 20.4668 21.0625 20.5862C20.9433 20.7056 20.8017 20.8003 20.6458 20.8649C20.49 20.9295 20.323 20.9627 20.1543 20.9627C19.9856 20.9627 19.8186 20.9295 19.6628 20.8649C19.5069 20.8003 19.3653 20.7056 19.2461 20.5862C19.1268 20.4668 19.0322 20.3251 18.9676 20.1691C18.9031 20.0131 18.8699 19.8459 18.8699 19.6771C18.8699 19.5082 18.9031 19.3411 18.9676 19.1851C19.0322 19.0291 19.1268 18.8874 19.2461 18.768C19.3653 18.6486 19.5069 18.5539 19.6628 18.4893C19.8186 18.4247 19.9856 18.3914 20.1543 18.3914C20.323 18.3914 20.49 18.4247 20.6458 18.4893C20.8017 18.5539 20.9433 18.6486 21.0625 18.768C21.1818 18.8874 21.2764 19.0291 21.341 19.1851C21.4055 19.3411 21.4388 19.5082 21.4388 19.6771Z" fill="white"/>
<path d="M20.1059 17.9988C19.1854 17.9988 18.4314 18.7545 18.4314 19.6759C18.4314 20.5972 19.1854 21.3529 20.1059 21.3529C21.0264 21.3529 21.7814 20.5972 21.7814 19.6759C21.7814 18.7545 21.0264 17.9988 20.1059 17.9988ZM20.1059 18.781C20.6042 18.781 20.9999 19.1771 20.9999 19.6759C20.9999 20.1746 20.6042 20.5707 20.1059 20.5707C19.6077 20.5707 19.2129 20.1746 19.2129 19.6759C19.2129 19.1771 19.6077 18.781 20.1059 18.781Z" fill="white"/>
</svg>
