<svg width="29" height="18" viewBox="0 0 29 18" fill="none" xmlns="http://www.w3.org/2000/svg">
<path d="M11.584 16.512V18H0.136V0.959999H11.368V2.448H1.816V8.592H10.144V10.008H1.816V16.512H11.584ZM28.033 7.032H24.937L23.809 11.736H27.025V13.032H23.497L22.297 18H20.905L22.129 13.032H17.593L16.393 18H15.001L16.225 13.032H13.513V11.736H16.537L17.665 7.032H14.545V5.808H17.977L19.153 0.959999H20.545L19.345 5.808H23.881L25.057 0.959999H26.449L25.249 5.808H28.033V7.032ZM22.441 11.736L23.569 7.032H19.033L17.905 11.736H22.441Z" fill="url(#paint0_linear_19_532)"/>
<defs>
<linearGradient id="paint0_linear_19_532" x1="1" y1="-8.01366e-07" x2="11" y2="25" gradientUnits="userSpaceOnUse">
<stop offset="0.500681" stop-color="white"/>
<stop offset="0.506625" stop-color="#FF7A00"/>
</linearGradient>
</defs>
</svg>
