<svg width="32" height="32" viewBox="0 0 32 32" fill="none" xmlns="http://www.w3.org/2000/svg">
<g clip-path="url(#clip0_19_522)">
<path d="M15.3563 24H16.6437V14.1609H15.3563V24ZM16 11.8621C16.2605 11.8621 16.4789 11.7739 16.6552 11.5977C16.8314 11.4215 16.9195 11.2031 16.9195 10.9425C16.9195 10.682 16.8314 10.4636 16.6552 10.2874C16.4789 10.1111 16.2605 10.023 16 10.023C15.7395 10.023 15.5211 10.1111 15.3448 10.2874C15.1686 10.4636 15.0805 10.682 15.0805 10.9425C15.0805 11.2031 15.1686 11.4215 15.3448 11.5977C15.5211 11.7739 15.7395 11.8621 16 11.8621ZM16.008 32C13.7958 32 11.7156 31.5802 9.76745 30.7406C7.81928 29.901 6.12464 28.7616 4.68354 27.3223C3.24247 25.883 2.10161 24.1906 1.26097 22.2449C0.420322 20.2992 0 18.2202 0 16.008C0 13.7958 0.419786 11.7156 1.25936 9.76745C2.09896 7.81928 3.23839 6.12466 4.67766 4.68359C6.11695 3.24248 7.80944 2.10161 9.75513 1.26097C11.7008 0.420323 13.7798 0 15.992 0C18.2042 0 20.2844 0.419785 22.2326 1.25936C24.1807 2.09896 25.8753 3.23839 27.3164 4.67766C28.7575 6.11695 29.8984 7.80944 30.739 9.75513C31.5797 11.7008 32 13.7798 32 15.992C32 18.2042 31.5802 20.2844 30.7406 22.2326C29.901 24.1807 28.7616 25.8754 27.3223 27.3165C25.883 28.7575 24.1906 29.8984 22.2449 30.739C20.2992 31.5797 18.2202 32 16.008 32ZM16 30.7126C20.1073 30.7126 23.5862 29.2874 26.4368 26.4368C29.2874 23.5862 30.7126 20.1073 30.7126 16C30.7126 11.8927 29.2874 8.41379 26.4368 5.56322C23.5862 2.71264 20.1073 1.28736 16 1.28736C11.8927 1.28736 8.41379 2.71264 5.56322 5.56322C2.71264 8.41379 1.28736 11.8927 1.28736 16C1.28736 20.1073 2.71264 23.5862 5.56322 26.4368C8.41379 29.2874 11.8927 30.7126 16 30.7126Z" fill="white"/>
</g>
<defs>
<clipPath id="clip0_19_522">
<rect width="32" height="32" fill="white"/>
</clipPath>
</defs>
</svg>
