<svg width="32" height="47" viewBox="0 0 32 47" fill="none" xmlns="http://www.w3.org/2000/svg">
<g clip-path="url(#clip0_19_97)">
<path d="M22.1037 46.8642C21.5652 46.577 21.4275 45.9017 21.9074 45.9017C21.9937 45.9017 22.1135 45.9281 22.1736 45.9603C22.3244 46.0413 23.0674 46.0371 23.267 45.9542C23.5663 45.8299 23.4498 45.7096 23.0297 45.7091C22.496 45.7085 22.3358 45.4714 22.6592 45.1607C22.8651 44.963 22.8655 44.9657 22.6116 44.8204C22.4057 44.7025 22.2213 44.4215 22.2213 44.2256C22.2213 44.1627 22.1018 44.2531 21.8701 44.4912C21.2141 45.1653 20.2915 45.095 20.1679 44.3614C20.1309 44.1418 20.1309 44.1418 19.7545 44.4977C19.2184 45.0049 18.7734 45.092 18.3865 44.7657C17.9078 44.3618 18.064 43.5715 18.8511 42.4158C19.342 41.6949 19.3327 41.6463 18.7734 42.0087C17.871 42.5935 16.7472 44.0844 16.7472 44.6968C16.7472 44.8202 16.5477 44.9686 16.3818 44.9686C16.0829 44.9686 15.8166 44.7082 15.8166 44.416C15.8166 44.2972 15.8163 44.2973 15.6387 44.4321C14.514 45.2861 13.176 45.1383 12.9071 44.1303C12.8246 43.8214 12.8146 43.8185 12.6521 44.0577C11.9397 45.1068 10.9109 45.3004 10.5857 44.4466C10.4226 44.0186 10.5255 43.6689 11.1018 42.6918C11.3612 42.252 11.3624 42.2468 11.2258 42.1735C11.1377 42.1263 11.0675 42.1921 10.7146 42.6528C9.00535 44.8838 7.90303 45.5054 7.42542 44.5075C7.32752 44.3029 7.32752 44.3029 7.02557 44.5796C6.3058 45.2391 5.47947 44.9102 5.65431 44.0337C5.69879 43.8107 5.69183 43.8161 5.33396 44.2846C4.71688 45.0923 3.99966 45.1891 3.65468 44.5111C2.96384 43.1534 5.41669 40.1869 6.57455 40.9798C6.77534 41.1173 6.77534 41.1173 7.00554 40.6692C7.50035 39.7061 7.89055 39.3481 8.29854 39.4832C8.82379 39.657 8.75066 40.1857 8.07703 41.0845C7.47051 41.8938 6.61658 43.7609 6.85275 43.7613C7.04484 43.7616 8.36674 42.1167 8.69356 41.4706C8.9032 41.0561 9.34657 40.9425 9.58981 41.2409C9.80107 41.5001 9.69456 41.8093 9.09377 42.6808C8.56852 43.4428 8.44748 43.649 8.37859 43.8992C8.1998 44.5484 9.20503 43.7333 9.78105 42.762C10.2016 42.0529 10.2372 41.9529 10.2001 41.5854C10.1217 40.8087 11.0686 40.3468 11.4154 40.9926C11.482 41.1165 11.5877 41.2033 11.7455 41.2638C12.4035 41.5157 12.5533 42.1571 12.1257 42.8914C12.0142 43.083 11.826 43.4002 11.7075 43.5963C11.3428 44.1999 11.4469 44.2802 11.9958 43.8187C12.4234 43.4592 12.9476 42.8466 13.1666 42.4504C13.8995 41.1246 15.0333 40.4997 15.8006 40.9985C16.909 41.7191 15.9719 43.4593 14.4754 43.4593C13.8966 43.4593 13.8481 43.4795 13.8468 43.7208C13.8455 43.9405 14.1235 44.1063 14.4287 44.0679C15.3916 43.9465 16.6072 42.833 17.2279 41.5037C17.5128 40.8935 18.2252 40.8961 18.2252 41.5074C18.2252 41.6602 18.2841 41.65 18.4457 41.4693C18.9533 40.9013 19.5292 40.71 19.9278 40.9769C20.4919 41.3547 20.4106 41.943 19.6227 43.1849C19.1146 43.9858 19.0569 44.1468 19.3065 44.0674C19.453 44.0208 20.534 42.9122 20.7557 42.5812C20.8568 42.4303 21.0518 42.1462 21.189 41.95C21.3261 41.7538 21.4828 41.4986 21.5371 41.3829C21.7709 40.8852 22.4766 41.0185 22.4552 41.5564C22.4441 41.8346 22.3902 41.9384 21.8367 42.7479C20.8847 44.1402 20.8703 44.568 21.8034 43.7356C22.5707 43.0512 22.7275 42.8318 22.7386 42.4272C22.7614 41.6022 23.6186 40.8344 24.5247 40.8276C25.3586 40.8213 25.682 41.5918 25.1008 42.2C24.7589 42.5578 24.3676 42.5362 24.5484 42.1696C24.7546 41.7514 24.6624 41.6801 24.2035 41.9028C23.4705 42.2586 23.3631 42.6086 23.9867 42.6088C24.6515 42.6091 24.8984 42.7993 25.0075 43.3949C25.054 43.6493 25.3194 43.4523 25.7029 42.8788C25.9537 42.5037 26.2935 42.5453 26.1045 42.9279C25.5742 44.0021 24.7999 44.7223 23.9396 44.9415C23.5503 45.0407 23.5503 45.0407 23.771 45.1578C24.2615 45.4178 24.3906 46.0079 24.0498 46.4317C23.6355 46.9469 22.6638 47.1628 22.1037 46.8642ZM23.8373 43.7444C24.2611 43.3328 24.2441 43.2673 23.713 43.2669C23.4401 43.2667 23.2317 43.2367 23.1289 43.183C23.0409 43.137 22.9528 43.1186 22.9331 43.1421C22.5339 43.6178 22.4856 43.7612 22.7246 43.7612C22.8899 43.7612 23.0219 43.8026 23.1535 43.8957C23.4248 44.0878 23.5011 44.0709 23.8373 43.7444ZM5.00968 43.7078C5.63558 43.234 6.51062 42.0521 6.51062 41.6805C6.51062 41.619 6.27605 41.679 6.04212 41.8003C5.55554 42.0526 4.59705 43.3789 4.59522 43.8024C4.5946 43.9768 4.68017 43.9572 5.00968 43.7078ZM14.8094 42.653C15.1933 42.4259 15.4609 41.8497 15.1676 41.8818C14.9305 41.9077 14.1752 42.6414 14.254 42.7692C14.2942 42.8345 14.6168 42.7671 14.8094 42.653ZM9.59904 40.8452C9.19498 40.7348 9.05194 39.8844 9.34441 39.3315C9.50472 39.0284 9.5087 39.0328 9.19381 39.1662C8.68782 39.3805 8.2013 39.0347 8.17104 38.4393C8.16409 38.3024 8.15692 38.1781 8.15512 38.163C8.15326 38.1479 8.08697 38.2467 8.00771 38.3826C7.69876 38.912 7.23929 39.2607 6.85063 39.2607C6.56993 39.2607 6.18219 38.9417 6.18219 38.7108C6.18219 38.5996 6.15534 38.6123 5.91708 38.8357C5.32098 39.3947 4.75729 39.4112 4.48575 38.8776C4.28943 38.4917 4.38388 38.1506 4.95076 37.1981C5.2504 36.6946 4.92112 36.7971 4.53996 37.326C4.03518 38.0264 2.48502 39.4802 2.24303 39.4802C2.20964 39.4802 2.03045 39.641 1.84482 39.8375C1.28853 40.4265 0.709735 40.6193 0.282473 40.3582C-0.367615 39.9608 0.190761 39.0412 1.08214 39.0412C1.3522 39.0412 1.35418 39.0399 1.49661 38.7667C1.66599 38.442 1.65541 38.4316 1.40761 38.6801C0.757202 39.3322 0.0841586 38.6476 0.439511 37.6953C0.951664 36.3229 2.73375 35.3023 3.49565 35.9451C3.82929 36.2265 3.6611 36.5165 3.16418 36.5165C2.62271 36.5165 1.8318 37.0883 1.43557 37.7661C1.10434 38.3328 1.62421 38.0466 2.28966 37.2959C2.82178 36.6956 3.18413 36.6024 3.35962 37.0209C3.45081 37.2383 3.45104 37.2377 3.02637 37.9514C2.60631 38.6573 2.59486 38.7346 2.95592 38.4268C3.51269 37.9521 4.17667 36.8031 4.12405 36.4054C4.03093 35.7016 4.87154 35.3197 5.20799 35.913C5.26292 36.0099 5.34632 36.0774 5.41096 36.0774C6.07466 36.0774 6.12984 36.9934 5.52044 37.8951C5.31006 38.2064 5.19887 38.4923 5.28821 38.4923C5.47359 38.4923 6.37578 37.5701 6.65732 37.0928C7.28903 36.0219 8.05756 35.4639 8.34136 35.8701C8.51706 36.1216 8.45505 36.3258 8.08186 36.7245C7.60409 37.235 7.11279 37.9824 7.11279 38.1989C7.11279 38.4715 7.61596 38.0261 8.61028 36.8732C9.48128 35.8634 9.68255 35.7039 9.98897 35.781C10.3733 35.8778 10.3006 36.2593 9.73226 37.1286C8.77612 38.591 8.80221 38.9427 9.79373 37.9572C10.334 37.4202 10.7503 36.7544 10.8606 36.2511C10.939 35.8932 11.4651 35.8147 11.6463 36.1339C11.7551 36.3257 11.8005 36.337 11.8488 36.1842C12.0681 35.4916 13.1662 35.6963 13.2694 36.449C13.3293 36.8857 12.9456 38.0909 12.6977 38.2445C12.6669 38.2636 12.6416 38.3039 12.6416 38.334C12.6416 38.4516 13.0014 38.168 13.4436 37.7017C14.1179 36.9909 14.2796 37.1581 13.7305 37.9984C12.9908 39.1305 11.3398 39.6834 10.6381 39.0341C10.4998 38.9061 10.4787 38.9273 10.2703 39.4048C10.0963 39.8034 10.0965 39.7993 10.233 39.9742C10.5326 40.3582 10.082 40.9773 9.59904 40.8452ZM11.5867 38.1493C11.9771 37.7417 12.5011 36.6881 12.3972 36.5196C12.2801 36.3297 11.4321 37.1877 11.0746 37.8579C10.9564 38.0794 10.9564 38.0794 11.1558 38.1984C11.4141 38.3525 11.3894 38.3553 11.5867 38.1493ZM22.2761 40.814C21.9743 40.7048 21.9124 40.2415 22.1621 39.9613C22.3729 39.7248 22.82 39.698 22.9925 39.9117C23.3661 40.3742 22.8515 41.0222 22.2761 40.814ZM15.3377 39.161C14.7622 38.8532 14.8545 38.1199 15.6043 37.0424C15.7662 36.8096 15.9539 36.5158 16.0214 36.3895C16.252 35.9578 16.4576 35.8449 16.7435 35.9932C17.093 36.1744 17.0109 36.482 16.3508 37.4632C15.5083 38.7156 15.6757 38.9006 16.7009 37.8501C17.114 37.4268 17.171 37.3452 17.1459 37.2134C16.9357 36.1113 18.99 35.1685 19.3838 36.1863C19.5125 36.519 19.1242 37.1202 18.7807 37.1202C18.64 37.1202 18.6415 37.152 18.7574 36.64C18.8058 36.4265 18.5059 36.5335 18.0747 36.8838C17.7352 37.1595 17.763 37.2299 18.2115 37.2302C18.7754 37.2305 19.063 37.4594 19.056 37.9023C19.0517 38.1801 19.555 37.7265 19.7414 37.2846C20.4032 35.7165 21.221 34.5956 21.7034 34.5956C22.4392 34.5956 22.2283 35.5208 21.2734 36.4822C20.7304 37.0289 20.0753 38.4923 20.3735 38.4923C20.5311 38.4923 21.2938 37.6473 21.6117 37.1204C22.2841 36.0059 23.8218 35.389 24.452 35.9809C24.7318 36.2437 24.5414 36.5165 24.0782 36.5165C23.4615 36.5167 22.6749 37.0918 22.2828 37.8293C21.8667 38.612 22.3901 38.3336 23.0898 37.3999C23.8227 36.422 24.8052 36.5698 24.1614 37.5611C23.9526 37.8826 23.7926 38.2199 23.8308 38.2582C23.9703 38.3981 25.2726 36.7898 25.4239 36.2906C25.5453 35.8903 25.8967 35.7998 26.1895 36.0934C26.3479 36.2522 26.3764 36.2631 26.4257 36.184C26.7979 35.5865 27.6692 35.6362 27.8282 36.264C27.8953 36.529 27.8953 36.529 28.0802 36.2949C28.9227 35.2285 30.0492 35.8698 29.4335 37.0653C29.3325 37.2615 29.1095 37.6369 28.9379 37.8994C28.3972 38.7269 28.5419 38.7378 29.3398 37.9295C29.8314 37.4315 30.5029 36.5355 30.6053 36.2409C30.6856 36.01 30.9767 35.8754 31.1974 35.967C31.5579 36.1168 31.5281 36.4437 31.096 37.0824C29.9631 38.7567 30.063 39.0334 31.3299 37.7307C31.844 37.2021 31.8631 37.1889 31.9559 37.3011C32.0899 37.4629 31.0582 38.848 30.609 39.1093C30.1126 39.3981 29.6015 39.2114 29.472 38.6939C29.4375 38.5563 29.4342 38.5578 29.1518 38.841C28.7688 39.225 28.504 39.3088 28.1584 39.1556C27.5618 38.891 27.6244 38.1949 28.3414 37.1202C28.4924 36.8938 28.6078 36.7002 28.5978 36.6899C28.4077 36.4946 27.1182 37.967 26.8063 38.7355C26.632 39.165 26.5937 39.2038 26.3427 39.205C25.7466 39.2078 25.773 38.5174 26.4094 37.4621C26.9029 36.6438 26.8861 36.5482 26.3304 37.0119C25.8272 37.4318 25.2836 38.253 25.155 38.7875C25.0353 39.2849 24.2467 39.3778 24.2467 38.8945C24.2467 38.8357 24.1884 38.8583 24.0415 38.9737C23.4371 39.4487 22.8155 39.2831 22.8016 38.6434C22.7985 38.505 22.7923 38.3959 22.7876 38.4009C22.7829 38.4059 22.668 38.5615 22.5323 38.7467C22.0827 39.3602 21.1812 39.387 21.1812 38.7868C21.1812 38.673 21.1321 38.694 20.8944 38.9093C20.2984 39.4492 19.5889 39.3277 19.501 38.6707C19.4631 38.3873 19.446 38.3852 19.2076 38.6355C18.4429 39.4384 16.7472 39.477 16.7472 38.6915C16.7472 38.5255 16.7472 38.5255 16.4664 38.813C16.04 39.2497 15.6997 39.3546 15.3377 39.161ZM18.1185 38.1603C18.4503 37.8363 18.4422 37.8118 18.009 37.8275C17.8029 37.8349 17.6238 37.8085 17.5217 37.7556C17.3624 37.673 17.3581 37.6747 17.2089 37.8763C17.1256 37.9887 17.0313 38.1148 16.9992 38.1564C16.9516 38.2183 16.9708 38.2258 17.1041 38.1971C17.2251 38.1711 17.3238 38.1972 17.4862 38.298C17.7806 38.4808 17.7931 38.4781 18.1185 38.1603ZM16.6367 35.5972C16.4819 35.3998 16.5209 35.1129 16.7268 34.9336C16.808 34.8629 16.8507 34.7888 16.8218 34.7689C16.7779 34.7387 16.6232 34.1456 16.4188 33.2234C16.3953 33.1178 16.2964 32.6979 16.1989 32.2904C15.8823 30.9672 15.6587 29.9811 15.6141 29.7109C15.5638 29.4057 15.5653 29.4061 14.6854 29.4436C13.4984 29.4942 13.1993 29.6655 13.2377 30.2733C13.241 30.326 13.3264 30.4619 13.4275 30.5751C14.7418 32.0488 13.1715 34.5301 11.2834 33.963C9.10431 33.3086 9.2633 30.6037 11.5468 29.4814C12.4826 29.0215 12.7869 28.9544 14.2291 28.8898C15.3215 28.8409 15.4622 28.8151 15.4009 28.6747C15.3795 28.6258 15.3307 28.4252 15.2923 28.229C15.0681 27.0818 15.0745 27.1033 14.964 27.1147C14.906 27.1207 14.5753 27.1671 14.2291 27.2178C9.66873 27.886 5.88363 23.0798 7.15866 18.2401C7.784 16.4293 8.52886 15.1697 9.82246 13.9664C9.973 13.8261 10.3117 13.517 10.5751 13.2796C11.1421 12.7687 11.1557 12.7119 10.8167 12.2673C9.99151 11.1847 9.71261 9.94579 9.85141 7.97925C9.88666 7.47982 9.92844 7.05005 9.94425 7.02419C9.99183 6.94634 10.0671 7.11424 10.068 7.30028C10.0698 7.71885 10.3403 8.8319 10.6451 9.67713C10.8602 10.2734 11.761 11.7869 11.8485 11.6991C11.8599 11.6877 11.8454 11.5803 11.8162 11.4604C11.787 11.3405 11.7261 11.0572 11.6808 10.8308C11.5621 10.2377 11.4643 9.76024 11.2703 8.82749C10.9685 7.37665 10.9413 7.24358 10.8549 6.79678C10.8082 6.55529 10.7356 6.18483 10.6935 5.97352C10.6514 5.76222 10.5926 5.4535 10.5629 5.28747C10.5332 5.12145 10.4844 4.87447 10.4545 4.73863C10.3286 4.16729 9.95483 2.29033 9.89703 1.93955C9.84932 1.65004 9.79494 1.56887 9.51585 1.37064C9.10636 1.07978 9.20237 0.318233 9.67871 0.0787475C9.95384 -0.0595755 10.0338 -0.00966719 9.84325 0.181411C9.53368 0.491791 9.68536 1.04604 10.1152 1.17516C10.3171 1.23579 10.3837 1.22036 10.8013 1.01615C10.9548 0.941116 10.6076 1.36722 10.4357 1.46479C10.2804 1.553 10.234 1.61052 10.252 1.69257C10.2653 1.75294 10.3246 1.98757 10.3839 2.21397C10.4431 2.44037 10.5067 2.68896 10.525 2.76641C10.5434 2.84385 10.6112 2.96734 10.6757 3.04083C11.217 3.65792 12.5342 5.99196 13.1307 7.39093C13.9371 9.28229 14.0926 10.6282 13.65 11.8858C13.4876 12.3474 13.5745 12.6126 13.9377 12.7635C14.4791 12.9883 14.7749 13.0941 15.0776 13.171C17.8576 13.877 18.9024 14.3232 20.1903 15.3545C25.066 19.2589 22.9991 27.5503 16.7472 29.1663C16.1755 29.314 16.1989 29.2905 16.2605 29.656C16.2885 29.822 16.347 30.1925 16.3905 30.4793C16.4662 30.9779 16.5427 31.4525 16.7225 32.5374C16.7675 32.8091 16.8396 33.2536 16.8828 33.5253C16.926 33.797 16.9899 34.1976 17.0248 34.4155C17.0744 34.7245 17.1115 34.8191 17.1933 34.8451C17.3572 34.8973 17.5136 35.0961 17.5136 35.2523C17.5136 35.7041 16.9076 35.9425 16.6367 35.5972ZM16.6552 28.3928C18.0302 27.8137 19.7418 26.0093 20.4029 24.442C21.5388 21.7488 20.5403 18.5928 17.9275 16.6176C17.5018 16.2957 16.3685 15.6847 15.5668 15.3448C15.4144 15.2802 15.1065 15.1426 14.8826 15.039C14.6587 14.9355 14.2414 14.7509 13.9554 14.6288C13.6694 14.5067 13.3615 14.3681 13.2711 14.3208C13.034 14.1968 13.0343 14.1626 13.264 15.2764C13.3107 15.5028 13.4002 15.9226 13.463 16.2094C13.5257 16.4962 13.6008 16.8524 13.6298 17.001C13.6991 17.3564 13.6514 17.3372 14.4116 17.3156C19.5063 17.171 20.8022 24.5418 16.061 26.6971C15.7858 26.8223 15.7018 26.8859 15.7197 26.956C15.7327 27.0072 15.8145 27.3886 15.9014 27.8037C16.0839 28.6755 16.0489 28.6481 16.6552 28.3928ZM14.4207 26.4986C14.6315 26.4459 14.824 26.3848 14.8485 26.3628C14.8944 26.3218 14.8451 26.0341 14.5572 24.6615C14.4653 24.2238 14.3165 23.5076 14.2263 23.0699C14.1362 22.6322 14.0257 22.1012 13.9808 21.8899C13.9359 21.6786 13.8311 21.1675 13.7479 20.7542C13.5681 19.8603 13.5965 19.8995 13.2539 20.0736C11.2836 21.0746 11.3866 23.8706 13.4168 24.4954C13.8674 24.634 13.7413 25.0457 13.2484 25.0457C11.8182 25.0457 10.3945 23.2323 10.3982 21.4155C10.4013 19.9754 11.3752 18.4117 12.6787 17.7545C12.8647 17.6607 13.0278 17.5649 13.0411 17.5416C13.0624 17.5044 12.948 16.9042 12.6671 15.5782C12.6223 15.3669 12.5495 14.999 12.5053 14.7607C12.4118 14.2563 12.3983 14.234 12.2715 14.3748C9.25798 17.7224 8.02642 20.6847 8.66795 23.0425C9.32779 25.4676 12.0369 27.0952 14.4207 26.4986ZM15.9261 25.915C18.2336 24.5928 17.9638 20.7901 15.5027 19.9491C15.1375 19.8243 14.2291 19.7259 14.2291 19.8111C14.2291 19.8389 14.2917 20.1575 14.3682 20.519C14.4985 21.135 14.5652 21.4536 14.7183 22.1918C14.7527 22.3578 14.8035 22.5924 14.8313 22.7132C14.859 22.8339 14.9705 23.3649 15.079 23.8932C15.4598 25.7458 15.5398 26.0888 15.5911 26.088C15.6098 26.0877 15.7605 26.0099 15.9261 25.915ZM12.5511 10.8955C12.7533 10.2757 12.699 9.04779 12.4244 8.03168C12.0779 6.74924 11.7203 5.73446 11.2735 4.76608C11.176 4.55477 11.0368 4.25222 10.9641 4.09375C10.7506 3.62815 10.7602 3.75957 11.0172 4.82096C11.0903 5.12282 11.1918 5.55504 11.2429 5.78143C11.2939 6.00783 11.3698 6.34125 11.4116 6.52237C11.4881 6.85434 11.6499 7.6105 12.0752 9.62331C12.1231 9.84971 12.1962 10.1847 12.2377 10.3678C12.2792 10.5508 12.3132 10.7406 12.3132 10.7895C12.3132 10.8891 12.4076 11.1601 12.4424 11.1601C12.4547 11.1601 12.5036 11.041 12.5511 10.8955ZM31.1378 35.632C31.0007 35.4946 31.0191 35.1485 31.1725 34.9786C31.3888 34.7389 31.847 34.8034 31.9655 35.0902C32.1585 35.5573 31.4958 35.991 31.1378 35.632ZM16.3619 12.8203C16.0621 12.551 16.0317 12.083 16.2595 11.2448C16.318 11.0295 16.3426 10.8422 16.3159 10.8154C16.2045 10.7037 15.1814 11.1291 14.3933 11.6148C13.9169 11.9084 13.914 11.9056 14.0345 11.2688C14.3246 9.73527 13.4701 7.16423 11.7911 4.5191C11.2434 3.65619 11.0018 3.23326 11.0384 3.2014C11.0621 3.1808 11.217 3.12493 11.3826 3.07728C11.5482 3.02962 11.9423 2.88949 12.2584 2.76586C14.5517 1.8691 15.4274 2.2701 16.1717 4.5577C16.3072 4.97417 16.4429 5.3578 16.4732 5.41022C16.5034 5.46264 16.5284 5.53673 16.5287 5.57487C16.5312 5.97277 17.1976 6.93591 17.6197 7.15179C18.2922 7.49581 20.4761 7.48585 22.3855 7.13004C24.1421 6.80272 24.6353 6.7236 25.3689 6.65148C26.7403 6.51666 27.131 6.76372 26.1664 7.15568C24.1338 7.98158 22.3802 9.14075 19.3748 11.6451C19.1791 11.8082 18.9692 11.9818 18.9084 12.0311C17.8973 12.8493 16.7798 13.1957 16.3619 12.8203Z" fill="white"/>
</g>
<defs>
<clipPath id="clip0_19_97">
<rect width="32" height="47" fill="white"/>
</clipPath>
</defs>
</svg>
