<svg width="45" height="53" viewBox="0 0 45 53" fill="none" xmlns="http://www.w3.org/2000/svg">
<path d="M16.057 13.0787L14 40.5968H16.057H27.5022H29.5591L27.5022 13.0787C23.8624 11.572 19.9896 11.7105 16.057 13.0787Z" stroke="white" stroke-width="0.85" stroke-linecap="round" stroke-linejoin="round"/>
<path d="M14.7409 34.7308H28.0773" stroke="white" stroke-width="0.85" stroke-linecap="round" stroke-linejoin="round"/>
<path d="M21.4091 34.7308L30.2788 19.6829M31.1997 18.0951L31.7819 17.1328" stroke="white" stroke-width="0.85" stroke-linecap="round" stroke-linejoin="round"/>
<path d="M22.8909 18.5992H20.6682V34.7308H22.8909V18.5992Z" stroke="white" stroke-width="0.85" stroke-linecap="round" stroke-linejoin="round"/>
<path d="M30.2278 17.866L32.5228 19.1757L31.2704 20.799L29.5591 19.7654L30.2278 17.866Z" stroke="white" stroke-width="0.85" stroke-linecap="round" stroke-linejoin="round"/>
<path d="M20.6682 20.799H22.8909" stroke="white" stroke-width="0.85" stroke-linecap="round" stroke-linejoin="round"/>
<path d="M20.6682 22.9988H22.8909" stroke="white" stroke-width="0.85" stroke-linecap="round" stroke-linejoin="round"/>
<path d="M20.6682 25.1985H22.8909" stroke="white" stroke-width="0.85" stroke-linecap="round" stroke-linejoin="round"/>
<path d="M20.6682 28.1315H22.8909" stroke="white" stroke-width="0.85" stroke-linecap="round" stroke-linejoin="round"/>
<path d="M20.6682 30.3312H22.8909" stroke="white" stroke-width="0.85" stroke-linecap="round" stroke-linejoin="round"/>
<path d="M20.6682 32.531H22.8909" stroke="white" stroke-width="0.85" stroke-linecap="round" stroke-linejoin="round"/>
</svg>
